<svg version="1.2" xmlns="http://www.w3.org/2000/svg" viewBox="0 0 230 48" width="230" height="48"><style>tspan{white-space:pre}.a{fill:#fff}.b{font-size: 45px;line-height: 39px;fill: #ffffff;font-weight: 400;font-family: "DejaVuSans", "DejaVu Sans"}</style><path fill-rule="evenodd" class="a" d="m147.4 63.4v33.6h-5.2l-18.5-22.8v22.8h-6.2v-33.6h5.1l18.6 22.8v-22.8zm8.4 8h6v25.6h-6zm3-4.2q-1.6 0-2.7-1-1.1-1.1-1.1-2.6 0-1.6 1.1-2.6 1.1-1 2.7-1 1.7 0 2.8 1 1.1 0.9 1.1 2.4 0 1.6-1.1 2.7-1.1 1.1-2.8 1.1zm21.3 18.8l-4.4 4.3v6.7h-6v-35.6h6v21.5l12.4-11.5h7.2l-10.7 10.8 11.7 14.8h-7.3zm43.1-1.6q0 0.6-0.1 1.7h-20.1q0.5 2.9 2.7 4.5 2.3 1.7 5.6 1.7 4.2 0 6.9-2.8l3.3 3.7q-1.8 2-4.4 3.1-2.6 1.1-6 1.1-4.2 0-7.4-1.7-3.2-1.7-5-4.7-1.7-3-1.7-6.8 0-3.7 1.7-6.7 1.7-3 4.7-4.7 3-1.7 6.8-1.7 3.8 0 6.7 1.7 3 1.6 4.6 4.6 1.7 3 1.7 7zm-13-8.5q-2.8 0-4.9 1.7-1.9 1.7-2.4 4.5h14.6q-0.4-2.7-2.4-4.5-1.9-1.7-4.9-1.7z"/><path fill-rule="evenodd" class="a" d="m59.8 15.4c-19.8 5.5-37.4 10.1-39.1 10-4.8 0-9.3-3.8-9.9-8.4-0.3-2.2-0.3-5.3 0.1-7l0.7-3-2.6 3.2c-4 5-7.8 12.9-8.5 17.7-1.5 9.4 6 15.6 16.2 13.3 4-0.9 80.3-34.1 81.7-35.6 1-1.1-4.6 0.4-38.6 9.8z"/><text style="transform:matrix(1,0,0,1,107,9)" ><tspan x="4.4" y="34.2" class="b">N</tspan><tspan  y="34.2" class="b">i</tspan><tspan  y="34.2" class="b">k</tspan><tspan  y="34.2" class="b">o</tspan><tspan  y="34.2" class="b">
</tspan></text></svg>